<svg id="layer_1" data-name="layer 1" xmlns="http://www.w3.org/2000/svg" viewBox="0 0 400 400"><defs><style>.cls-1{fill:#285b96;}</style></defs><path class="cls-1" d="M208.28,91.47A18.51,18.51,0,0,1,226.77,110a4.38,4.38,0,1,0,8.75,0,27.26,27.26,0,0,0-27.24-27.23,4.38,4.38,0,1,0,0,8.75Z"/><path class="cls-1" d="M309.79,213.87h-32c-3.78-39.61-14.07-50.28-31.56-65.1l-.46-.39a53.73,53.73,0,1,0-75.21.14l-.3.25c-17.39,14.74-27.68,25.38-31.52,65.1h-32a21,21,0,0,0-21,21v1.81a21,21,0,0,0,17.49,20.62v79.09h17.5V257.61h175v78.74h17.49V257.26a21,21,0,0,0,17.5-20.62v-1.81A21,21,0,0,0,309.79,213.87Zm0,26.24h-203a3.47,3.47,0,0,1-3.47-3.47v-1.81a3.48,3.48,0,0,1,3.47-3.47h203a3.47,3.47,0,0,1,3.47,3.47v1.81A3.47,3.47,0,0,1,309.79,240.11Zm-49.5-26.24h-9.45c-.23-10.43-2.12-30.78-17.74-38.6a4.38,4.38,0,0,0-3.91,7.83c11.12,5.56,12.67,21.89,12.88,30.77H230l1.15-1.42-15.35-35.18,12.7-17.45c.83-.34,1.63-.74,2.44-1.12l4,3.42C249.42,174.39,257,180.9,260.29,213.87Zm-52.17-140a36.23,36.23,0,1,1-36.23,36.22A36.27,36.27,0,0,1,208.12,73.89Zm-26.51,88.23,3.91-3.32c.74.35,1.47.7,2.23,1l12.69,17.45-15.35,35.18,1.16,1.42H156.3C159.61,180.81,167.22,174.32,181.61,162.12Z"/><polygon class="cls-1" points="287.02 266.36 278.27 266.36 129.54 266.36 129.54 275.11 278.27 275.11 278.27 327.6 278.27 336.35 287.02 336.35 287.02 327.6 287.02 275.11 287.02 266.36"/></svg>